<?xml version="1.0" encoding="UTF-8"?>
<svg xmlns="http://www.w3.org/2000/svg" xmlns:xlink="http://www.w3.org/1999/xlink" width="925px" height="325px" viewBox="0 0 925 325" version="1.1">
<defs>
<filter id="alpha" filterUnits="objectBoundingBox" x="0%" y="0%" width="100%" height="100%">
  <feColorMatrix type="matrix" in="SourceGraphic" values="0 0 0 0 1 0 0 0 0 1 0 0 0 0 1 0 0 0 1 0"/>
</filter>
<mask id="mask0">
  <g filter="url(#alpha)">
<rect x="0" y="0" width="925" height="325" style="fill:rgb(0%,0%,0%);fill-opacity:0.54902;stroke:none;"/>
  </g>
</mask>
<clipPath id="clip1">
  <rect x="0" y="0" width="925" height="325"/>
</clipPath>
<g id="surface7" clip-path="url(#clip1)">
<path style=" stroke:none;fill-rule:nonzero;fill:rgb(100%,100%,100%);fill-opacity:1;" d="M 808.855469 311.773438 C 753.777344 312.171875 731.683594 275.84375 806.855469 278.859375 L 806.855469 279.101562 C 764.585938 282.351562 774.34375 303.675781 808.160156 309.996094 C 808.335938 310.597656 808.59375 311.1875 808.855469 311.773438 Z M 808.855469 311.773438 "/>
</g>
<mask id="mask1">
  <g filter="url(#alpha)">
<rect x="0" y="0" width="925" height="325" style="fill:rgb(0%,0%,0%);fill-opacity:0.54902;stroke:none;"/>
  </g>
</mask>
<clipPath id="clip2">
  <rect x="0" y="0" width="925" height="325"/>
</clipPath>
<g id="surface10" clip-path="url(#clip2)">
<path style=" stroke:none;fill-rule:nonzero;fill:rgb(100%,100%,100%);fill-opacity:1;" d="M 904.039062 353.296875 C 927.769531 360.574219 956.179688 365.71875 986.828125 368.28125 C 947.535156 366.722656 910.527344 361 880.730469 351.867188 C 851.960938 343.0625 830.039062 331.460938 815.230469 316.382812 C 809.648438 310.640625 806.8125 304.613281 806.839844 298.546875 L 806.839844 223.421875 L 1181.847656 225.253906 L 1182.199219 226.585938 L 830.15625 224.859375 L 830.15625 299.988281 C 830.128906 306.054688 832.964844 312.082031 838.542969 317.824219 C 853.347656 332.90625 875.234375 344.5 904.039062 353.296875 Z M 904.039062 353.296875 "/>
</g>
<mask id="mask2">
  <g filter="url(#alpha)">
<rect x="0" y="0" width="925" height="325" style="fill:rgb(0%,0%,0%);fill-opacity:0.301961;stroke:none;"/>
  </g>
</mask>
<clipPath id="clip3">
  <rect x="0" y="0" width="925" height="325"/>
</clipPath>
<g id="surface13" clip-path="url(#clip3)">
<path style=" stroke:none;fill-rule:nonzero;fill:rgb(11.764706%,15.294118%,41.568627%);fill-opacity:1;" d="M 1193.566406 269.652344 L 1193.566406 302.921875 C 1193.578125 305.511719 1192.851562 308.089844 1191.394531 310.625 C 1180.574219 329.550781 1157.632812 343.707031 1124.15625 353.730469 C 1053.980469 374.746094 950.320312 373.144531 880.726562 351.871094 C 873.292969 349.601562 866.335938 347.144531 859.914062 344.519531 C 927.808594 359.632812 1016.894531 358.867188 1079.414062 340.132812 C 1112.898438 330.109375 1135.839844 315.953125 1146.652344 297.027344 C 1148.109375 294.492188 1148.832031 291.914062 1148.816406 289.328125 L 1148.816406 256.070312 L 1140.632812 225.0625 L 1181.84375 225.265625 Z M 1193.566406 269.652344 "/>
</g>
<mask id="mask3">
  <g filter="url(#alpha)">
<rect x="0" y="0" width="925" height="325" style="fill:rgb(0%,0%,0%);fill-opacity:0.54902;stroke:none;"/>
  </g>
</mask>
<clipPath id="clip4">
  <rect x="0" y="0" width="925" height="325"/>
</clipPath>
<g id="surface17" clip-path="url(#clip4)">
<path style=" stroke:none;fill-rule:nonzero;fill:rgb(100%,100%,100%);fill-opacity:1;" d="M 778.851562 223.4375 C 823.804688 243.121094 896.214844 249.710938 991.339844 247.648438 C 991.339844 247.648438 911.273438 259.089844 853.355469 250.53125 C 795.433594 241.972656 783.730469 231.851562 778.851562 223.4375 Z M 778.851562 223.4375 "/>
<path style=" stroke:none;fill-rule:nonzero;fill:rgb(11.764706%,15.294118%,41.568627%);fill-opacity:1;" d="M 903.261719 254.148438 C 886.148438 254.148438 868.636719 253.300781 852.820312 250.964844 C 795.628906 242.511719 782.664062 232.351562 777.53125 223.527344 L 776.425781 221.628906 L 779.875 223.140625 C 821.773438 241.488281 890.917969 249.351562 991.238281 247.183594 L 999.355469 247.007812 L 991.820312 248.082031 C 991.234375 248.160156 948.644531 254.148438 903.261719 254.148438 Z M 781.351562 225.226562 C 787.363281 233.664062 801.851562 242.40625 853.847656 250.085938 C 899.683594 256.863281 960.34375 250.882812 982.375 248.277344 C 888.707031 249.761719 822.816406 242.214844 781.351562 225.226562 Z M 781.351562 225.226562 "/>
</g>
<mask id="mask4">
  <g filter="url(#alpha)">
<rect x="0" y="0" width="925" height="325" style="fill:rgb(0%,0%,0%);fill-opacity:0.54902;stroke:none;"/>
  </g>
</mask>
<clipPath id="clip5">
  <rect x="0" y="0" width="925" height="325"/>
</clipPath>
<g id="surface20" clip-path="url(#clip5)">
<path style=" stroke:none;fill-rule:nonzero;fill:rgb(100%,100%,100%);fill-opacity:1;" d="M 1151.953125 170.089844 C 1009.351562 141.539062 883.957031 147.226562 808.726562 167.507812 C 811.820312 177.832031 785.066406 190.234375 757.070312 188.15625 C 719.722656 211.304688 726.082031 241.003906 796.898438 264.953125 C 585.746094 204.71875 826.667969 98.671875 1148.515625 167.589844 C 1136.953125 150.066406 1180.6875 143.203125 1188.847656 154.265625 C 1176.859375 154.457031 1163.503906 159.289062 1163.792969 167.570312 C 1163.867188 169.753906 1157.359375 171.171875 1151.953125 170.089844 Z M 1151.953125 170.089844 "/>
</g>
<mask id="mask5">
  <g filter="url(#alpha)">
<rect x="0" y="0" width="925" height="325" style="fill:rgb(0%,0%,0%);fill-opacity:0.301961;stroke:none;"/>
  </g>
</mask>
<clipPath id="clip6">
  <rect x="0" y="0" width="925" height="325"/>
</clipPath>
<g id="surface24" clip-path="url(#clip6)">
<path style=" stroke:none;fill-rule:nonzero;fill:rgb(11.764706%,15.294118%,41.568627%);fill-opacity:1;" d="M 1232.058594 278.859375 C 1221.378906 278.167969 1208.351562 279.117188 1193.578125 282.46875 C 1161.550781 279.179688 1150.3125 261.390625 1149.265625 236.539062 C 1018.496094 252.433594 869.644531 260.851562 806.855469 242.773438 L 806.855469 267.679688 C 772.628906 258.742188 749.855469 248.621094 736.785156 238.117188 L 736.785156 238.101562 C 761.882812 245.605469 775.246094 241.796875 779.082031 224.695312 C 810.5 270.050781 1046.511719 254.789062 1126.734375 215.285156 C 1137.898438 209.785156 1165.039062 214.308594 1173.628906 220.359375 C 1222.867188 254.980469 1316.667969 217.457031 1239.898438 182.570312 C 1239.945312 182.570312 1239.984375 182.589844 1240.074219 182.589844 C 1240.726562 182.75 1242.820312 183.214844 1246.085938 183.949219 C 1303.953125 198.785156 1302.257812 252.570312 1232.058594 278.859375 Z M 1232.058594 278.859375 "/>
</g>
<mask id="mask6">
  <g filter="url(#alpha)">
<rect x="0" y="0" width="925" height="325" style="fill:rgb(0%,0%,0%);fill-opacity:0.14902;stroke:none;"/>
  </g>
</mask>
<clipPath id="clip7">
  <rect x="0" y="0" width="925" height="325"/>
</clipPath>
<g id="surface27" clip-path="url(#clip7)">
<path style=" stroke:none;fill-rule:nonzero;fill:rgb(100%,100%,100%);fill-opacity:1;" d="M 1007.136719 174.25 C 1004.132812 168.421875 974.285156 165.445312 940.46875 167.597656 C 906.65625 169.75 881.679688 176.21875 884.683594 182.046875 C 887.6875 187.871094 917.535156 190.847656 951.351562 188.695312 C 985.164062 186.542969 1010.140625 180.074219 1007.136719 174.25 Z M 1007.136719 174.25 "/>
</g>
<mask id="mask7">
  <g filter="url(#alpha)">
<rect x="0" y="0" width="925" height="325" style="fill:rgb(0%,0%,0%);fill-opacity:0.2;stroke:none;"/>
  </g>
</mask>
<clipPath id="clip8">
  <rect x="0" y="0" width="925" height="325"/>
</clipPath>
<g id="surface58" clip-path="url(#clip8)">
<path style=" stroke:none;fill-rule:nonzero;fill:rgb(11.764706%,15.294118%,41.568627%);fill-opacity:1;" d="M 600.957031 259.605469 L 582.289062 259.605469 C 597.777344 259.605469 610.332031 263.546875 610.332031 268.40625 L 610.332031 279.554688 C 602.554688 301.601562 556.882812 304.039062 536.46875 307.578125 C 530.667969 308.582031 525.839844 310.164062 522.59375 312.128906 L 522.523438 312.171875 L 505.757812 322.375 C 504.617188 323.070312 503.066406 323.671875 501.207031 324.140625 C 508.507812 325.976562 519.449219 325.394531 524.410156 322.375 L 539.949219 312.917969 L 609.226562 310.480469 L 613.332031 308.078125 C 622.617188 306.640625 629.023438 303.652344 629.023438 300.1875 L 629.023438 268.40625 C 629 263.546875 616.449219 259.605469 600.957031 259.605469 Z M 600.957031 259.605469 "/>
</g>
</defs>
<g id="surface1">
<path style=" stroke:none;fill-rule:nonzero;fill:rgb(21.568627%,85.882353%,100%);fill-opacity:1;" d="M 1637.746094 324.941406 C 1637.746094 411.71875 1508.480469 487.894531 1313.90625 530.984375 L 576.191406 530.984375 C 381.613281 487.894531 252.347656 411.722656 252.347656 324.941406 C 252.347656 190.527344 562.484375 81.5625 945.050781 81.5625 C 1327.617188 81.5625 1637.746094 190.527344 1637.746094 324.941406 Z M 1637.746094 324.941406 "/>
<path style=" stroke:none;fill-rule:nonzero;fill:rgb(98.431373%,83.921569%,63.529412%);fill-opacity:1;" d="M 808.855469 311.773438 C 753.777344 312.171875 731.683594 275.84375 806.855469 278.859375 L 806.855469 306.078125 C 807.332031 308.023438 807.988281 309.921875 808.855469 311.773438 Z M 808.855469 311.773438 "/>
<use xlink:href="#surface7" mask="url(#mask0)"/>
<path style=" stroke:none;fill-rule:nonzero;fill:rgb(11.764706%,15.294118%,41.568627%);fill-opacity:1;" d="M 807.988281 315.054688 C 787.6875 315.054688 769.097656 310.859375 758.082031 303.765625 C 746.613281 296.375 746.261719 287.910156 757.199219 282.203125 C 762.941406 279.210938 777.160156 274.367188 807.914062 275.601562 C 812.621094 275.789062 816.175781 277.1875 816.183594 278.851562 L 816.183594 305.929688 C 816.644531 307.792969 817.285156 309.574219 818.0625 311.234375 C 818.503906 312.171875 817.765625 313.128906 816.035156 313.863281 C 814.304688 314.59375 811.757812 315.023438 809.050781 315.042969 C 808.691406 315.054688 808.339844 315.054688 807.988281 315.054688 Z M 797.53125 281.960938 C 788.28125 282.011719 778.378906 282.886719 772.675781 285.863281 C 765.796875 289.449219 766.535156 295.519531 774.460938 300.625 C 780.175781 304.304688 788.566406 306.867188 797.996094 307.9375 C 797.839844 307.414062 797.695312 306.886719 797.566406 306.355469 C 797.542969 306.261719 797.527344 306.167969 797.53125 306.070312 Z M 797.53125 281.960938 "/>
<path style=" stroke:none;fill-rule:nonzero;fill:rgb(98.431373%,83.921569%,63.529412%);fill-opacity:1;" d="M 1193.566406 269.652344 L 1193.566406 302.921875 C 1193.578125 305.511719 1192.851562 308.089844 1191.394531 310.625 C 1184.824219 322.117188 1173.765625 331.859375 1158.558594 339.984375 C 1149.027344 345.121094 1137.433594 349.753906 1124.144531 353.730469 C 1053.96875 374.746094 950.308594 373.144531 880.710938 351.871094 C 851.945312 343.066406 830.019531 331.464844 815.210938 316.386719 C 814.75 315.925781 814.324219 315.460938 813.933594 314.988281 L 813.898438 314.972656 C 809.191406 309.65625 806.808594 304.117188 806.820312 298.546875 L 806.820312 223.425781 L 1181.832031 225.257812 Z M 1193.566406 269.652344 "/>
<path style=" stroke:none;fill-rule:nonzero;fill:rgb(43.921569%,85.490196%,74.901961%);fill-opacity:1;" d="M 1158.5625 339.984375 C 1149.03125 345.121094 1137.441406 349.753906 1124.148438 353.730469 C 1053.972656 374.746094 950.3125 373.144531 880.714844 351.871094 C 851.949219 343.066406 830.027344 331.464844 815.214844 316.386719 C 814.753906 315.925781 814.328125 315.460938 813.941406 314.988281 C 872.59375 330.773438 1009.816406 331.96875 1122.71875 317.472656 C 1119.359375 330.800781 1131.308594 338.304688 1158.5625 339.984375 Z M 1158.5625 339.984375 "/>
<use xlink:href="#surface10" mask="url(#mask1)"/>
<use xlink:href="#surface13" mask="url(#mask2)"/>
<path style=" stroke:none;fill-rule:nonzero;fill:rgb(11.764706%,15.294118%,41.568627%);fill-opacity:1;" d="M 1007.515625 371.960938 C 1005.664062 371.960938 1003.816406 371.953125 1001.964844 371.933594 C 955.429688 371.46875 910.199219 365.21875 874.617188 354.335938 C 843.851562 344.925781 821.546875 332.863281 806.429688 317.457031 C 800.492188 311.375 797.484375 304.984375 797.53125 298.550781 L 797.53125 254.867188 C 797.453125 253.679688 799.214844 252.570312 802.132812 251.96875 C 805.050781 251.367188 808.664062 251.367188 811.582031 251.96875 C 814.496094 252.570312 816.257812 253.679688 816.183594 254.867188 L 816.183594 298.554688 C 816.132812 304.257812 818.792969 309.925781 824.046875 315.324219 C 838.070312 329.625 858.613281 340.761719 886.84375 349.394531 C 953.820312 369.871094 1053.242188 370.664062 1118.09375 351.230469 C 1150.554688 341.507812 1172.132812 327.628906 1182.230469 309.980469 C 1183.550781 307.65625 1184.21875 305.289062 1184.222656 302.917969 L 1184.222656 269.65625 C 1184.148438 268.46875 1185.90625 267.359375 1188.824219 266.757812 C 1191.742188 266.15625 1195.355469 266.15625 1198.273438 266.757812 C 1201.1875 267.359375 1202.949219 268.46875 1202.875 269.65625 L 1202.875 302.917969 C 1202.875 305.722656 1202.082031 308.523438 1200.515625 311.273438 C 1189.578125 330.394531 1165.921875 345.519531 1130.191406 356.222656 C 1096.207031 366.410156 1052.820312 371.960938 1007.515625 371.960938 Z M 1007.515625 371.960938 "/>
<use xlink:href="#surface17" mask="url(#mask3)"/>
<path style=" stroke:none;fill-rule:nonzero;fill:rgb(36.470588%,36.470588%,36.470588%);fill-opacity:1;" d="M 1232.070312 278.851562 C 1221.359375 278.171875 1208.332031 279.121094 1193.566406 282.464844 C 1161.546875 279.175781 1150.296875 261.394531 1149.253906 236.546875 C 1018.484375 252.425781 869.625 260.851562 806.835938 242.769531 L 806.835938 267.683594 C 578.441406 207.976562 821.796875 97.625 1148.515625 167.585938 C 1133.71875 145.113281 1209.722656 140.183594 1185.25 168.03125 C 1185.25 168.03125 1185.636719 167.910156 1186.371094 167.664062 C 1186.871094 167.503906 1187.339844 167.355469 1187.839844 167.191406 C 1188.265625 167.066406 1188.765625 166.90625 1189.308594 166.742188 C 1217.847656 158.238281 1242.359375 161.621094 1244.832031 167.3125 C 1246.917969 171.890625 1234.742188 177.964844 1199.011719 180.53125 C 1301.402344 173.648438 1317.753906 246.75 1232.070312 278.851562 Z M 1232.070312 278.851562 "/>
<path style=" stroke:none;fill-rule:nonzero;fill:rgb(11.764706%,15.294118%,41.568627%);fill-opacity:1;" d="M 777.460938 221.441406 C 780.496094 225.296875 785.101562 228.976562 791.132812 232.367188 C 797.03125 235.644531 804.488281 238.542969 812.769531 240.230469 L 800.980469 245.3125 C 796.460938 243.644531 792.628906 241.761719 789.597656 239.71875 C 786.734375 237.800781 784.402344 235.792969 782.632812 233.71875 C 779.234375 229.734375 777.492188 225.601562 777.460938 221.441406 Z M 777.460938 221.441406 "/>
<use xlink:href="#surface20" mask="url(#mask4)"/>
<path style=" stroke:none;fill-rule:nonzero;fill:rgb(11.764706%,15.294118%,41.568627%);fill-opacity:1;" d="M 1193.578125 285.75 C 1192.691406 285.746094 1191.8125 285.703125 1190.960938 285.617188 C 1159.125 282.34375 1142.902344 268.148438 1140.246094 241.070312 C 1071.921875 249.011719 901.941406 265.890625 816.179688 248.945312 L 816.179688 267.679688 C 816.179688 268.921875 814.191406 270.054688 811.039062 270.609375 C 807.890625 271.167969 804.113281 271.050781 801.285156 270.3125 C 690.285156 241.292969 690.375 202.371094 739.71875 176.667969 C 774.40625 158.597656 833.640625 146.269531 902.210938 142.847656 C 976.144531 139.15625 1057.0625 145.589844 1137.269531 161.472656 C 1137.683594 154.347656 1147.050781 149.542969 1156.695312 147.34375 C 1166.757812 145.050781 1178.398438 145.054688 1187.070312 147.359375 C 1191.996094 148.660156 1201.144531 152.25 1199.160156 160.492188 C 1215.292969 157.628906 1229.53125 157.945312 1238.957031 159.640625 C 1249.800781 161.589844 1255.769531 165.511719 1254.175781 169.636719 C 1252.867188 173.023438 1247.007812 176.058594 1237.464844 178.511719 C 1253.113281 180.757812 1266.449219 185.195312 1276.570312 191.652344 C 1310.964844 213.601562 1302.007812 257.453125 1238.851562 281.097656 C 1236.679688 281.910156 1233.484375 282.277344 1230.367188 282.074219 C 1221.25 281.488281 1210.285156 282.574219 1198.636719 285.214844 C 1197.132812 285.5625 1195.375 285.746094 1193.578125 285.75 Z M 1149.261719 233.261719 C 1154.359375 233.257812 1158.515625 234.699219 1158.589844 236.488281 C 1159.625 261.109375 1171.078125 275.339844 1192.566406 278.84375 C 1204.914062 276.328125 1217.15625 275.15625 1228.375 275.402344 C 1252.828125 265.613281 1270.035156 251.101562 1275.820312 235.265625 C 1281.484375 219.773438 1275.660156 204.644531 1260.234375 194.800781 C 1246.066406 185.761719 1226.074219 182.039062 1200.78125 183.75 C 1195.742188 184.089844 1190.871094 182.9375 1189.875 181.167969 C 1188.875 179.402344 1192.128906 177.683594 1197.152344 177.320312 C 1223.898438 175.394531 1234.617188 171.5 1235.695312 168.75 C 1236.230469 167.359375 1234.328125 166.164062 1230.472656 165.472656 C 1223.261719 164.171875 1208.777344 164.695312 1191.675781 170.414062 C 1188.601562 171.4375 1183.941406 171.605469 1180.335938 170.820312 C 1176.730469 170.035156 1175.085938 168.496094 1176.335938 167.070312 C 1184.410156 157.886719 1179.8125 153.644531 1175.828125 152.585938 C 1172.542969 151.710938 1168.460938 152.46875 1166.851562 152.835938 C 1158.855469 154.660156 1152.890625 159.699219 1157.601562 166.847656 C 1158.445312 168.132812 1157.015625 169.46875 1153.972656 170.242188 C 1150.929688 171.015625 1146.867188 171.070312 1143.660156 170.382812 C 1061.96875 152.894531 979.386719 145.617188 904.835938 149.335938 C 841.472656 152.5 786.933594 163.800781 755.183594 180.335938 C 713.097656 202.257812 711.339844 235.007812 797.527344 260.882812 L 797.527344 242.773438 C 797.527344 241.507812 799.605469 240.355469 802.863281 239.8125 C 806.121094 239.269531 809.976562 239.4375 812.765625 240.238281 C 873.496094 257.730469 1024.835938 248.203125 1146.226562 233.449219 C 1147.203125 233.328125 1148.226562 233.265625 1149.261719 233.265625 Z M 1149.261719 233.261719 "/>
<use xlink:href="#surface24" mask="url(#mask5)"/>
<use xlink:href="#surface27" mask="url(#mask6)"/>
<path style=" stroke:none;fill-rule:nonzero;fill:rgb(11.764706%,15.294118%,41.568627%);fill-opacity:1;" d="M 907.683594 267.417969 C 900.785156 267.070312 894.417969 266.6875 888.304688 266.414062 C 882.457031 266.136719 876.5625 266.007812 870.660156 266.03125 C 864.972656 266.050781 859.316406 266.332031 853.835938 266.863281 C 848.027344 267.296875 842.609375 268.269531 835.886719 269.140625 L 835.738281 269.160156 C 835.203125 269.238281 834.585938 269.191406 834.1875 269.039062 C 833.792969 268.890625 833.707031 268.671875 833.964844 268.488281 C 836.949219 266.1875 841.785156 264.03125 848.410156 262.675781 C 854.972656 261.234375 862.53125 260.453125 870.269531 260.414062 C 877.769531 260.359375 885.210938 260.894531 892.046875 261.980469 C 898.683594 263.058594 904.707031 264.519531 909.160156 266.632812 C 909.382812 266.738281 909.480469 266.871094 909.421875 267.003906 C 909.367188 267.132812 909.167969 267.25 908.863281 267.328125 C 908.566406 267.40625 908.195312 267.441406 907.828125 267.421875 Z M 1011.25 265.347656 C 1015.238281 263.222656 1020.914062 261.722656 1027.3125 260.636719 C 1033.9375 259.519531 1041.253906 259.007812 1048.589844 259.140625 C 1052.359375 259.214844 1056.085938 259.46875 1059.660156 259.894531 C 1063.195312 260.335938 1066.539062 260.949219 1069.585938 261.714844 C 1075.523438 263.269531 1080.023438 265.332031 1082.199219 267.695312 C 1082.445312 267.960938 1082.03125 268.246094 1081.273438 268.335938 C 1080.925781 268.375 1080.546875 268.367188 1080.214844 268.308594 L 1080.183594 268.308594 C 1074.003906 267.28125 1068.644531 266.375 1063.371094 265.769531 C 1058.316406 265.183594 1053.058594 264.84375 1047.742188 264.75 C 1042.476562 264.644531 1037.003906 264.789062 1031.234375 265.054688 C 1025.46875 265.320312 1019.414062 265.730469 1012.804688 266.117188 L 1012.667969 266.117188 C 1012.109375 266.152344 1011.550781 266.066406 1011.242188 265.898438 C 1010.933594 265.730469 1010.933594 265.515625 1011.246094 265.351562 Z M 1158.605469 342.324219 C 1158.21875 342.324219 1157.832031 342.3125 1157.453125 342.285156 C 1137.507812 341.0625 1114.835938 336.285156 1115.558594 320.847656 C 1024.363281 331.710938 915.101562 332.976562 846.496094 323.78125 C 844.21875 323.5 842.558594 322.804688 842.15625 321.964844 C 841.753906 321.128906 842.675781 320.28125 844.5625 319.75 C 846.449219 319.21875 849.007812 319.085938 851.246094 319.410156 C 919.503906 328.558594 1030.234375 326.859375 1120.457031 315.277344 C 1122.597656 315.003906 1124.992188 315.132812 1126.800781 315.621094 C 1128.609375 316.109375 1129.582031 316.886719 1129.378906 317.683594 C 1125.339844 333.6875 1144.773438 336.757812 1159.742188 337.671875 C 1163.140625 337.882812 1165.519531 338.96875 1165.222656 340.179688 C 1164.925781 341.386719 1162.054688 342.316406 1158.605469 342.320312 Z M 1158.605469 342.324219 "/>
<path style=" stroke:none;fill-rule:nonzero;fill:rgb(11.764706%,15.294118%,41.568627%);fill-opacity:1;" d="M 912.085938 297.960938 C 912.023438 289.847656 897.789062 283.285156 880.289062 283.300781 C 862.789062 283.320312 848.652344 289.90625 848.710938 298.019531 C 848.773438 306.128906 863.007812 312.691406 880.507812 312.675781 C 898.007812 312.660156 912.144531 306.070312 912.085938 297.960938 Z M 912.085938 297.960938 "/>
<path style=" stroke:none;fill-rule:nonzero;fill:rgb(100%,100%,100%);fill-opacity:1;" d="M 898.035156 294.566406 C 898.015625 291.84375 893.710938 289.640625 888.425781 289.644531 C 883.136719 289.648438 878.867188 291.859375 878.886719 294.585938 C 878.910156 297.308594 883.210938 299.511719 888.5 299.507812 C 893.785156 299.503906 898.054688 297.289062 898.035156 294.566406 Z M 898.035156 294.566406 "/>
<path style=" stroke:none;fill-rule:nonzero;fill:rgb(11.764706%,15.294118%,41.568627%);fill-opacity:1;" d="M 897.734375 324.503906 L 896.347656 324.503906 L 839.492188 323.800781 C 818.847656 323.539062 802.347656 317.679688 801.828125 310.421875 L 800.179688 286.550781 C 799.933594 282.996094 803.871094 279.5625 811.070312 277.058594 C 818.269531 274.558594 828.089844 273.210938 838.207031 273.335938 L 907.703125 274.191406 C 917.820312 274.316406 927.34375 275.902344 934.027344 278.578125 C 940.707031 281.25 943.953125 284.773438 943 288.3125 L 936.589844 312.085938 C 934.660156 319.121094 917.851562 324.492188 897.734375 324.503906 Z M 896.8125 319.816406 C 910.410156 319.976562 922.023438 316.394531 923.320312 311.632812 L 929.730469 287.867188 C 930.339844 285.609375 928.269531 283.363281 924.011719 281.65625 C 919.75 279.953125 913.679688 278.941406 907.230469 278.863281 L 837.734375 278.007812 C 831.285156 277.925781 825.027344 278.785156 820.441406 280.378906 C 815.851562 281.972656 813.339844 284.164062 813.496094 286.429688 L 815.140625 310.300781 C 815.488281 315.078125 826.355469 318.941406 839.957031 319.113281 Z M 1015.109375 323.140625 C 994.988281 323.125 978.179688 317.75 976.257812 310.714844 L 969.863281 286.945312 C 968.90625 283.402344 972.152344 279.878906 978.832031 277.207031 C 985.511719 274.53125 995.035156 272.945312 1005.15625 272.820312 L 1074.65625 271.964844 C 1084.773438 271.839844 1094.589844 273.1875 1101.789062 275.6875 C 1108.988281 278.191406 1112.929688 281.625 1112.683594 285.179688 L 1111.035156 309.050781 C 1110.515625 316.304688 1094.015625 322.167969 1073.371094 322.429688 L 1016.515625 323.132812 C 1016.027344 323.136719 1015.566406 323.140625 1015.109375 323.140625 Z M 1016.257812 320.792969 Z M 1075.949219 276.636719 L 1075.101562 276.636719 L 1005.601562 277.496094 C 999.152344 277.578125 993.082031 278.585938 988.824219 280.289062 C 984.566406 281.996094 982.496094 284.238281 983.105469 286.496094 L 989.507812 310.265625 C 990.828125 315.023438 1002.429688 318.601562 1016.023438 318.449219 L 1072.878906 317.746094 C 1086.480469 317.574219 1097.351562 313.710938 1097.691406 308.933594 L 1099.339844 285.0625 C 1099.492188 282.847656 1097.097656 280.703125 1092.695312 279.117188 C 1088.292969 277.53125 1082.257812 276.636719 1075.949219 276.632812 Z M 1075.949219 276.636719 "/>
<path style=" stroke:none;fill-rule:nonzero;fill:rgb(72.941176%,40.784314%,78.431373%);fill-opacity:1;" d="M 510.519531 328.167969 C 501.761719 328.183594 493.65625 326.539062 489.324219 323.863281 L 469.773438 311.964844 L 419.898438 311.964844 C 399.851562 311.921875 383.578125 306.644531 383.578125 300.195312 L 383.578125 268.40625 C 383.578125 261.914062 399.957031 256.632812 420.089844 256.632812 L 600.96875 256.632812 C 621.101562 256.632812 637.503906 261.914062 637.503906 268.40625 L 637.503906 300.195312 C 637.503906 306.695312 621.125 311.96875 600.96875 311.96875 L 551.273438 311.96875 L 531.722656 323.863281 C 527.390625 326.539062 519.285156 328.183594 510.519531 328.167969 Z M 510.519531 328.167969 "/>
<path style=" stroke:none;fill-rule:nonzero;fill:rgb(11.764706%,15.294118%,41.568627%);fill-opacity:1;" d="M 600.957031 259.605469 C 616.449219 259.605469 629.007812 263.546875 629.007812 268.40625 L 629.007812 300.195312 C 629.007812 305.054688 616.449219 308.992188 600.957031 308.992188 L 546.382812 308.992188 L 541.15625 312.175781 L 524.390625 322.378906 C 521.527344 324.121094 516.238281 325.191406 510.515625 325.191406 C 504.792969 325.191406 499.503906 324.121094 496.640625 322.378906 L 479.875 312.175781 L 474.648438 308.992188 L 419.894531 308.992188 C 404.488281 308.960938 392.027344 305.039062 392.027344 300.199219 L 392.027344 268.40625 C 392.027344 263.546875 404.589844 259.605469 420.078125 259.605469 L 600.957031 259.605469 M 600.957031 253.660156 L 420.078125 253.660156 C 395.28125 253.660156 375.105469 260.277344 375.105469 268.40625 L 375.105469 300.195312 C 375.105469 308.273438 395.152344 314.886719 419.792969 314.9375 L 464.878906 314.9375 L 465.222656 315.148438 L 481.984375 325.347656 C 487.871094 328.929688 498.746094 331.136719 510.519531 331.136719 C 522.289062 331.136719 533.167969 328.929688 539.054688 325.347656 L 555.820312 315.144531 L 556.160156 314.941406 L 600.957031 314.941406 C 625.757812 314.941406 645.933594 308.324219 645.933594 300.191406 L 645.933594 268.40625 C 645.933594 260.28125 625.757812 253.660156 600.957031 253.660156 Z M 600.957031 253.660156 "/>
<path style=" stroke:none;fill-rule:nonzero;fill:rgb(100%,100%,100%);fill-opacity:1;" d="M 483.3125 294.949219 C 481.929688 294.949219 480.601562 294.761719 479.613281 294.421875 L 452.191406 285.042969 C 451.160156 284.691406 450.578125 284.207031 450.578125 283.703125 C 450.578125 283.195312 451.160156 282.710938 452.191406 282.359375 L 477.839844 273.585938 C 479.203125 273.113281 481.179688 272.933594 483.015625 273.117188 C 484.855469 273.296875 486.28125 273.8125 486.746094 274.460938 C 487.210938 275.113281 486.648438 275.800781 485.273438 276.269531 L 463.535156 283.699219 L 487.03125 291.734375 C 488.585938 292.261719 489.070312 293.070312 488.257812 293.777344 C 487.445312 294.484375 485.496094 294.945312 483.332031 294.945312 Z M 537.730469 294.949219 C 535.5625 294.949219 533.617188 294.484375 532.804688 293.78125 C 531.992188 293.074219 532.476562 292.265625 534.03125 291.734375 L 557.523438 283.703125 L 535.789062 276.269531 C 533.699219 275.546875 533.664062 274.371094 535.707031 273.632812 C 537.75 272.894531 541.109375 272.875 543.21875 273.589844 L 568.871094 282.363281 C 569.902344 282.714844 570.484375 283.199219 570.484375 283.703125 C 570.484375 284.210938 569.902344 284.695312 568.871094 285.046875 L 541.453125 294.425781 C 540.457031 294.765625 539.121094 294.953125 537.730469 294.949219 Z M 500.351562 299.992188 C 499.890625 299.992188 499.429688 299.972656 498.988281 299.929688 C 496.140625 299.664062 494.445312 298.640625 495.195312 297.640625 L 516.421875 269.410156 C 517.175781 268.410156 520.089844 267.8125 522.933594 268.078125 C 525.78125 268.339844 527.476562 269.367188 526.726562 270.367188 L 505.511719 298.597656 C 504.890625 299.421875 502.773438 299.992188 500.351562 299.992188 Z M 500.351562 299.992188 "/>
<use xlink:href="#surface58" mask="url(#mask7)"/>
</g>
</svg>
