<svg xmlns="http://www.w3.org/2000/svg" data-name="Layer 1" viewBox="0 0 2000 2000"><defs><clipPath id="a"><path fill="none" d="M3103.85 960.91c-9.27 0-16.81 6.85-16.81 15.28v32.54h576.13v-32.54c0-8.43-7.54-15.28-16.81-15.28Z"/></clipPath><clipPath id="b"><path fill="none" d="m3323.77 2894.74 43.45-476.95h-354.39l43.45 476.95h267.49z"/></clipPath></defs><path fill="#37dbff" d="M3541.07 1999.65c0 534-279.49 1002.77-700.19 1267.95H1245.82c-420.71-265.18-700.2-733.92-700.2-1267.95 0-827.17 670.56-1497.73 1497.73-1497.73s1497.72 670.56 1497.72 1497.73Z"/><path fill="#2ecc71" d="M2776.21 2875.17c3.85 81.17-60.94 149-142.2 149V3176l-304.39-7.69-155.41-4-623.16-15.8 47.82-268.94h117.46L1872 2549.12a254.07 254.07 0 0 1 132.33-129.33l204.74-86.86a107.21 107.21 0 0 0 44.39 34.61 94.33 94.33 0 0 0 9.53 3.52 111 111 0 0 0 15.05 3.51h.09c3.42.58 6.85.92 10.36 1.17 2.34.16 4.6.25 6.94.25a27.84 27.84 0 0 0 3.76.17c7.28.25 14.63.25 21.91 0 3.51-.09 6.93-.17 10.45-.42s7-.59 10.45-1.17a110.9 110.9 0 0 0 15-3.51 93.44 93.44 0 0 0 9.53-3.52 106.88 106.88 0 0 0 60.95-66.79l239.09 136.43a191 191 0 0 1 96.18 156.82Z"/><path fill="#fff" d="m2263 2371.06-224.13 90a254.08 254.08 0 0 0-132.34 129.33l-142.21 301.83a49.75 49.75 0 0 1-45 28.56h-127.8l7.35-41.3h117.46L1872 2549.12a254.07 254.07 0 0 1 132.33-129.33l204.74-86.86a107.21 107.21 0 0 0 44.39 34.61 94.33 94.33 0 0 0 9.54 3.52Z" opacity=".55"/><path fill="#fbd6a2" d="M2432.45 2175.26v93.55a103.8 103.8 0 0 1-4.93 31.94 106.88 106.88 0 0 1-60.95 66.79 93.44 93.44 0 0 1-9.53 3.52 110.9 110.9 0 0 1-15 3.51c-3.43.58-6.94.92-10.45 1.17s-6.94.33-10.45.42c-7.28.25-14.63.25-21.91 0-1.25 0-2.51-.09-3.76-.17-2.34 0-4.6-.09-6.94-.25-3.51-.25-6.94-.59-10.36-1.17-.09-.09-.09 0-.09 0a111 111 0 0 1-15.05-3.51q-4.75-1.51-9.53-3.52a107.21 107.21 0 0 1-44.39-34.61 106.08 106.08 0 0 1-21.4-64q78.87 10.65 157.75-31.27c2.43-1.25 4.77-2.59 7.19-4 2.26-1.26 4.43-2.51 6.69-3.85 3.18-1.84 6.27-3.68 9.36-5.68l7.28-4.77a472.89 472.89 0 0 0 56.47-44.1Z"/><path fill="#1e276a" d="M2432.45 2175.26v93.55a103.8 103.8 0 0 1-4.93 31.94 106.88 106.88 0 0 1-60.95 66.79 93.44 93.44 0 0 1-9.53 3.52 110.9 110.9 0 0 1-15 3.51c-3.43.58-6.94.92-10.45 1.17s-6.94.33-10.45.42c-7.28.25-14.63.25-21.91 0-1.25 0-2.51-.09-3.76-.17a106.55 106.55 0 0 0 50-90.37v-48c2.43-1.25 4.77-2.59 7.19-4 2.26-1.17 4.43-2.51 6.69-3.85 3.18-1.84 6.27-3.68 9.36-5.68q3.65-2.27 7.28-4.77a472.89 472.89 0 0 0 56.46-44.06Z" opacity=".3"/><path fill="#fbd6a2" d="M1748.88 1918.61c-119.09 2.45-166.86-221.12-4.33-202.56v167.51c1.03 11.97 2.45 23.65 4.33 35.05Z"/><path fill="#fff" d="M1748.88 1918.61c-119.09 2.45-166.86-221.12-4.33-202.56v1.5c-91.39 20-70.29 151.22 2.82 190.13.38 3.68.94 7.32 1.51 10.93Z" opacity=".55"/><path fill="#1e276a" d="M1747 1938.8c-43.89 0-84.09-25.83-107.9-69.47-24.8-45.49-25.56-97.57-1.91-132.69 12.41-18.43 43.16-48.23 109.65-40.63a20.16 20.16 0 0 1 17.88 20v166.63c1 11.46 2.38 22.43 4.06 32.64a20.15 20.15 0 0 1-19.48 23.45c-.78.06-1.54.07-2.3.07Zm-22.61-203.65c-20 .31-41.41 5.7-53.74 24-14.87 22.07-13.28 59.42 3.86 90.84 12.36 22.66 30.5 38.43 50.89 45q-.51-4.82-.93-9.73a16.88 16.88 0 0 1-.08-1.74Z"/><path fill="#fbd6a2" d="M2569.69 1946.69a537.24 537.24 0 0 0 11-63.13v-145.28c31.94-20.63 60.11-26.47 83.2-22.23 101.67 18.46 106.67 230.64-94.2 230.64Z"/><path fill="#1e276a" d="M2569.69 1949.57H2566l.85-3.55a535.63 535.63 0 0 0 11-62.79v-146.52l1.32-.85c30.21-19.52 59.7-27.34 85.28-22.65 45.28 8.23 75.67 56.2 70.68 111.58-5.2 57.56-51.63 124.78-165.44 124.78Zm13.9-209.71v143.7a542.26 542.26 0 0 1-10.26 60.22c107.27-1.4 151.13-65 156.05-119.5 4.71-52.4-23.65-97.71-66-105.4-23.74-4.36-51.3 2.89-79.79 20.98Z"/><path fill="#1e276a" d="M2569.69 1966.85a20.17 20.17 0 0 1-19.61-24.86 517.46 517.46 0 0 0 10.47-59.6v-144.11a20.18 20.18 0 0 1 9.22-16.94c34-21.95 67.77-30.65 97.78-25.13 54.11 9.83 90.57 65.78 84.78 130.13-5.84 64.82-57.18 140.51-182.64 140.51Zm31.19-217.2v133.91a19.93 19.93 0 0 1-.14 2.32c-1.55 13.42-3.52 26.59-5.9 39.37 79.89-8.37 113.21-56.88 117.32-102.53 3.32-36.92-13.72-79.9-51.86-86.83-17.3-3.18-37.69 1.57-59.42 13.76Z"/><path fill="#fbd6a2" d="M2580.68 1659.41v204.73a237.83 237.83 0 0 1-4.69 47.41c-14.21 70.72-38.12 130.66-71 180.65a393 393 0 0 1-74.41 84.61c-151.73 129.33-375.86 119.46-526.34-11.45-62.2-54.18-109.6-125.57-141.62-218.37-1-2.84-1.92-5.68-2.76-8.61l-.08-.08a339.41 339.41 0 0 1-15.3-101.08v-462.3l810.83 11.28Z"/><path fill="#70dabf" d="M2505 2092.2a393 393 0 0 1-74.41 84.61c-151.73 129.33-375.86 119.46-526.34-11.45-62.2-54.18-109.6-125.57-141.62-218.37-1-2.84-1.92-5.68-2.76-8.61 126.82 97.14 423.52 104.5 667.63 15.3q-10.89 123.02 77.5 138.52Z"/><path fill="#fff" d="M1954.68 2174.13a420 420 0 0 0 179 92.21 420.71 420.71 0 0 1-229.4-101c-62.2-54.18-109.6-125.57-141.62-218.37a337.81 337.81 0 0 1-18.14-109.77v-462.3l810.83 11.28.76 8.19-761.18-10.61v462.31a338.14 338.14 0 0 0 18.14 109.76c32.01 92.82 79.33 164.17 141.61 218.3Z" opacity=".55"/><path fill="#1e276a" d="M2580.68 1659.41v204.73a237.83 237.83 0 0 1-4.69 47.41c-23.4 116.45-73 203.56-145.38 265.26-151.73 129.33-375.86 119.46-526.34-11.45a442.63 442.63 0 0 1-45-45.23c146.8 93 339.42 88.28 474.6-27 72.4-61.69 122-148.8 145.38-265.26a237.14 237.14 0 0 0 4.68-47.4v-204.66l-17.7-190.81 89.11 1.25Z" opacity=".3"/><path fill="#1e276a" d="M2178.41 2289q-6 0-12-.18c-100.62-2.86-198.41-41.32-275.35-108.29-66.52-57.9-114.74-132.13-147.43-226.94a356.11 356.11 0 0 1-19.24-116.35v-268.82a20.17 20.17 0 1 1 40.33 0v268.83a316 316 0 0 0 17 103.2c30.32 88 74.74 156.54 135.78 209.67 144.81 126 359.78 130.9 500 11.31 70.19-59.84 116.84-145.25 138.67-253.86a221.69 221.69 0 0 0 4.31-43.45v-204.69a20.17 20.17 0 1 1 40.33 0v204.69a261.75 261.75 0 0 1-5.1 51.4c-23.65 117.68-74.8 210.75-152.05 276.61-73.48 62.71-167.29 96.87-265.25 96.87Z"/><path fill="#1e276a" d="M2732.76 1775.21q-41.21 122.49-152.05 81.66l-3.92 84.79 86.36-21.2s82.68-59.67 69.61-145.25Z" opacity=".3"/><g opacity=".55"><path fill="#fff" d="M1684 1375c97.2 121.13 253.76 161.68 459.44 149 0 0-173.12 70.4-298.35 17.73S1694.55 1426.77 1684 1375Z"/><path fill="#1e276a" d="M1953 1564c-37 0-74.87-5.23-109.06-19.61-123.66-52-151.69-114.54-162.79-168.83l-2.39-11.68 7.46 9.3c90.59 112.9 240.09 161.29 457 147.95l17.55-1.09-16.29 6.63c-1.27.48-93.36 37.33-191.48 37.33Zm-263.59-178c13 51.93 44.32 105.72 156.75 153 99.1 41.69 230.26 4.89 277.89-11.15-202.52 9.15-344.99-37.3-434.64-141.85Z"/></g><path fill="#5d5d5d" d="M2663.94 1716c-23.16-4.18-51.33 1.68-83.26 22.24-69.23-20.23-93.55-129.66-95.81-282.57-282.74 97.73-604.6 149.56-740.36 38.29v153.33c-493.83-367.43 32.35-1046.51 738.77-616-32-138.28 132.34-168.62 79.42 2.76 0 0 .84-.75 2.43-2.26 1.08-1 2.09-1.92 3.17-2.93.92-.75 2-1.75 3.18-2.75 61.7-52.34 114.7-31.52 120.05 3.51 4.51 28.17-21.82 65.54-99.07 81.34 221.38-42.36 256.74 407.5 71.48 605.04Z"/><path fill="#1e276a" d="M1681 1362.72a255.12 255.12 0 0 0 29.56 67.24c12.75 20.15 28.87 38 46.78 48.39l-25.49 31.26a151.29 151.29 0 0 1-24.61-34.41 208.5 208.5 0 0 1-15.06-36.94 265.45 265.45 0 0 1-11.18-75.54Z"/><path fill="#fff" d="M2490.71 1046.7C2182.38 871 1911.26 906 1748.6 1030.82c6.69 63.53-51.16 139.86-111.69 127.07-80.75 142.45-67 325.2 86.11 472.59-456.54-370.68 64.37-1023.26 760.26-599.16-25-107.84 69.56-150.06 87.2-82-25.92 1.18-54.8 30.93-54.17 81.89.16 13.44-13.91 22.15-25.6 15.49Z" opacity=".55"/><path fill="#fff" d="M2691.53 1029.65c-32.1-6.44-69 7.27-108.93 33.52-20.9 12.54-37.45-2.67-19.9-29.09 0 0 .84-.75 2.43-2.26.83-.75 1.92-1.67 3.17-2.93.92-.75 2-1.75 3.18-2.75 61.7-52.34 114.7-31.52 120.05 3.51Z" opacity=".55"/><path fill="#1e276a" d="M2580.71 1758.45a20.33 20.33 0 0 1-5.66-.81c-68.83-20.14-103.91-107.49-109.65-274.13-147.73 48.88-515.26 152.75-700.69 48.46v115.3a20.16 20.16 0 0 1-32.2 16.18c-240-178.58-239.81-418.1-133.12-576.26 75-111.2 203.08-187.06 351.34-208.13 159.85-22.71 334.81 16.87 508.23 114.62.9-43.85 21.15-73.42 42-86.95 21.76-14.12 46.93-14.08 65.68.09 10.65 8 30.43 30.1 26.14 80.83 34.88-17.63 65.67-15.67 86.05-5.25 23.44 12 36.35 36.13 32.9 61.53-2.83 20.83-15.5 39.51-36.13 54.6 33.83 13.83 62.67 41.13 84.55 80.87 74.37 135.06 55 404.93-81.55 550.44a20.13 20.13 0 0 1-18.35 6c-19.71-3.61-43.42 3.07-68.6 19.34a20.2 20.2 0 0 1-10.94 3.27Zm-95.82-323a20.16 20.16 0 0 1 20.17 19.87c2.24 151.5 27 239.08 73.46 260.64 26.7-15.48 53.17-22.68 77.43-21.18 52.87-60.23 90.07-149.55 102.58-247 12.25-95.34-.35-188.43-33.7-249-30.63-55.62-73.86-78.53-128.55-68a20.17 20.17 0 0 1-7.84-39.57c57.83-11.86 81-35.82 83.33-52.74 1.16-8.56-2.95-15.92-11.29-20.18-15.59-8-46.91-4.79-83.88 30.4a20.17 20.17 0 0 1-33.17-20.56c17.46-56.51 7.52-82.63-1.1-89.15-7.1-5.37-15.93-.7-19.41 1.56-17.29 11.22-30.18 42.23-20 86.21a20.17 20.17 0 0 1-30.14 21.77C2296.15 940.88 2117.59 896.1 1956.4 919c-137 19.46-254.92 89-323.57 190.75-91 134.91-94.8 336.45 91.55 495.68V1494a20.17 20.17 0 0 1 32.95-15.6c131.31 107.63 458.53 49 721-41.8a20 20 0 0 1 6.56-1.13Z"/><path fill="#1e276a" d="M2663.91 1716.05c-23.09-4.24-51.26 1.6-83.2 22.23-69.25-20.26-93.55-129.73-95.81-282.65-282.75 97.8-604.59 149.62-740.35 38.35v153.29c-74-55-123.24-117.3-151.5-181.93v-.1c54.26 46.17 83.16 22.73 91.45-82.51 67.93 279.11 578.23 185.21 751.68-57.91 24.14-33.84 82.82-6 101.4 31.23 106.46 213.07 309.27-17.85 143.28-232.53.1 0 .19.1.38.1 1.41 1 5.94 3.86 13 8.38 125.12 91.3 121.45 422.28-30.33 584.05Z" opacity=".3"/><ellipse cx="2045.22" cy="1096.26" fill="#fff" opacity=".15" rx="134.54" ry="65.97" transform="rotate(-10.27 2045.383 1096.322)"/><path fill="#1e276a" d="M1962.56 1645.65c-14.92-2.13-28.68-4.5-41.9-6.18a265.06 265.06 0 0 0-38.15-2.36 142.79 142.79 0 0 0-36.38 5.13c-12.56 2.67-24.27 8.64-38.81 14l-.32.12a3 3 0 0 1-3.83-4.12c6.45-14.17 16.91-27.44 31.23-35.78a91.59 91.59 0 0 1 47.26-13.91 108.92 108.92 0 0 1 47.09 9.63c14.35 6.64 27.37 15.63 37 28.64a3.05 3.05 0 0 1-.64 4.28 3 3 0 0 1-2.24.57ZM2186.49 1632.92c8.62-13.08 20.89-22.32 34.73-29a95.08 95.08 0 0 1 46-9.22 90.59 90.59 0 0 1 23.94 4.66 86.61 86.61 0 0 1 21.46 11.2c12.84 9.56 22.57 22.26 27.27 36.8a3.12 3.12 0 0 1-2 3.93 3.06 3.06 0 0 1-2.29-.15h-.07c-13.36-6.33-24.95-11.9-36.35-15.64a128.48 128.48 0 0 0-33.79-6.27c-11.39-.65-23.22.23-35.69 1.87s-25.56 4.16-39.85 6.55h-.3a3.07 3.07 0 0 1-3.07-4.72ZM2505.09 2106.6a14.13 14.13 0 0 1-2.49-.22c-43.12-7.53-92.14-36.93-90.58-131.93-197.18 66.84-433.42 74.64-581.76 18.06a14.41 14.41 0 1 1 10.27-26.92c147.59 56.3 387 45.85 582.08-25.41a14.4 14.4 0 0 1 19.29 14.8c-8.73 98.47 33.29 117.37 65.65 123a14.41 14.41 0 0 1-2.46 28.6Z"/><path fill="#1e276a" d="M2427.54 1968.11a14.4 14.4 0 0 1-11.73-22.75L2569 1729.93a14.41 14.41 0 0 1 23.48 16.7l-153.16 215.43a14.39 14.39 0 0 1-11.78 6.05Z"/><ellipse cx="1903.64" cy="1833.7" fill="#1e276a" rx="68.51" ry="90.38" transform="rotate(-.15 1934.161 1862.737)"/><ellipse cx="1921.08" cy="1812.69" fill="#fff" rx="20.7" ry="30.35" transform="rotate(-.15 1953.285 1843.663)"/><ellipse cx="2243.59" cy="1833.7" fill="#1e276a" rx="90.38" ry="68.51" transform="rotate(-89.85 2243.503 1833.706)"/><ellipse cx="2226.14" cy="1812.69" fill="#fff" rx="30.35" ry="20.7" transform="rotate(-89.85 2226.047 1812.696)"/><path fill="#1e276a" d="M1941.05 1996.94h-3l-122.93-4.32a84.52 84.52 0 0 1-81.44-82.33l-3.56-146.89a79.43 79.43 0 0 1 82.22-81.33l150.26 5.27a79.46 79.46 0 0 1 76.32 86.9l-13.86 146.28a84.54 84.54 0 0 1-84.01 76.42Zm-2-28.85a55.69 55.69 0 0 0 57.32-50.34l13.86-146.27a50.66 50.66 0 0 0-48.65-55.4l-150.26-5.27a50.64 50.64 0 0 0-52.41 51.84l3.56 146.89a55.69 55.69 0 0 0 53.65 54.24ZM2194.83 1988.55a84.54 84.54 0 0 1-84-76.47L2097 1765.81a79.46 79.46 0 0 1 76.31-86.91l150.27-5.27a79.45 79.45 0 0 1 82.22 81.33l-3.56 146.89a84.52 84.52 0 0 1-81.44 82.33l-122.93 4.32c-1.05.03-2.05.05-3.04.05Zm2.48-14.45Zm129.07-271.71h-1.84l-150.27 5.28a50.65 50.65 0 0 0-48.64 55.39l13.85 146.27a55.78 55.78 0 0 0 57.33 50.35l122.93-4.32a55.68 55.68 0 0 0 53.65-54.24l3.56-146.89a50.64 50.64 0 0 0-50.57-51.87Z"/><path fill="#1e276a" d="M2111.25 1811.52a14.28 14.28 0 0 1-8.1-2.5c-24.41-16.67-47.16-16.67-71.56 0a14.41 14.41 0 0 1-16.25-23.79c34-23.24 70-23.24 104 0a14.4 14.4 0 0 1-8.14 26.29ZM2391.35 1789.62a14.41 14.41 0 0 1-1.78-28.7l179.11-22.54a14.41 14.41 0 0 1 3.6 28.59l-179.11 22.53a14 14 0 0 1-1.82.12ZM2427.52 2320.92a20.18 20.18 0 0 1-19.2-26.36 83.7 83.7 0 0 0 4-25.75v-93.54a20.17 20.17 0 1 1 40.33 0v93.54a124 124 0 0 1-5.91 38.13 20.18 20.18 0 0 1-19.22 13.98ZM2209.09 2353.1a20.12 20.12 0 0 1-16.13-8 125.7 125.7 0 0 1-25.46-76.16 20.17 20.17 0 0 1 40.34-.09 85.78 85.78 0 0 0 17.35 52 20.17 20.17 0 0 1-16.1 32.29Z"/><path fill="#fdbd91" d="m2229 2877-183.37-47a106.74 106.74 0 0 0-71.41 6.56l-75.08 34.8a106.8 106.8 0 0 0-53.67 55.87l-17.91 43.11a43.7 43.7 0 0 0 40.35 60.47h117.93a47.68 47.68 0 0 0 16.68-3l60.93-22.67a48.39 48.39 0 0 1 30.36 1.32l27.32 10.4a106.63 106.63 0 0 0 42.72 6.86l65.17-2.92"/><path fill="#fff" d="M2229 2889.15v38.71l-171.22-43.94a106.74 106.74 0 0 0-71.4 6.61l-75 34.76a107.05 107.05 0 0 0-53.73 55.87l-17.85 43.17a37.18 37.18 0 0 0-2.06 6.43 43.42 43.42 0 0 1-10.21-48.32l17.93-43.08a106.9 106.9 0 0 1 53.64-55.87l75.1-34.84a107.17 107.17 0 0 1 71.4-6.53Z" opacity=".55"/><path fill="#1e276a" d="M1985.84 3050.93h-117.93a63.87 63.87 0 0 1-59-88.38l17.91-43.11a126.57 126.57 0 0 1 63.81-66.42l75.07-34.81a127.32 127.32 0 0 1 84.91-7.79l183.39 47a20.18 20.18 0 0 1 15.16 19.54v143.75a20.17 20.17 0 0 1-19.26 20.15l-65.18 2.92a125.57 125.57 0 0 1-50.79-8.17l-27.32-10.39a28.37 28.37 0 0 0-17-1l-60.06 22.35a67.83 67.83 0 0 1-23.71 4.36Zm243.16-30.18Zm-209.86-174a86.85 86.85 0 0 0-36.46 8l-75.08 34.81a86.38 86.38 0 0 0-43.53 45.32l-17.91 43.1a23.55 23.55 0 0 0 21.73 32.57h117.93a27.64 27.64 0 0 0 9.65-1.74l60.92-22.67c.51-.19 1-.35 1.53-.5a69 69 0 0 1 43 1.88l27.38 10.48a86.07 86.07 0 0 0 34.65 5.57l45.91-2.06v-108.87l-168.24-43.15a86.22 86.22 0 0 0-21.46-2.7Z"/><path fill="#1e276a" d="M2634 3196.12h-.51l-1083-27.5a20.17 20.17 0 0 1-19.34-23.7L1579 2876a20.17 20.17 0 0 1 19.85-16.64h104.67l150.21-318.81a273 273 0 0 1 142.71-139.3l204.73-86.86a20.18 20.18 0 0 1 24 6.51 86.75 86.75 0 0 0 36 28.07 73.68 73.68 0 0 0 7.64 2.83 89.11 89.11 0 0 0 11.44 2.73 16.87 16.87 0 0 1 1.71.27c2.18.35 4.64.61 7.87.84 2.76.2 5.44 0 8.15.38h1.81c6.8.24 13.71.23 20.51 0 3.43-.08 6.53-.15 9.69-.38 3.61-.26 6.23-.54 8.51-.93a91.3 91.3 0 0 0 12.46-2.89 72.85 72.85 0 0 0 7.51-2.77 86.46 86.46 0 0 0 49.69-54.26 20.17 20.17 0 0 1 29.25-11.54l239.1 136.44a210.3 210.3 0 0 1 106.29 173.39l13.46 281.14a162.58 162.58 0 0 1-142.18 169V3176a20.16 20.16 0 0 1-20.17 20.16Zm-1059-67.23 1038.82 26.38v-131.05a20.17 20.17 0 0 1 20.17-20.16 122.17 122.17 0 0 0 122.06-127.93L2742.61 2595a170.15 170.15 0 0 0-86-140.29l-219.41-125.2a126.67 126.67 0 0 1-62.87 56.67 114.74 114.74 0 0 1-11.37 4.18 132 132 0 0 1-17.75 4.14c-3.45.58-7.28 1-12.23 1.37-3.8.28-7.53.37-11.35.47-7.46.25-15.17.26-22.78 0-1.24 0-2.78 0-4.54-.17-2.43 0-4.82-.12-7.27-.3-4.51-.32-8.13-.72-11.57-1.28l-.64-.09a132.31 132.31 0 0 1-17.81-4.16 112.28 112.28 0 0 1-11.57-4.27 127.1 127.1 0 0 1-42.1-28.78l-191.14 81.09a233 233 0 0 0-121.83 119.06l-155.8 330.69a20.18 20.18 0 0 1-18.25 11.57h-100.56Z"/><path fill="#1e276a" d="M2525.08 2662.49c8.28 40.26 12.47 80.53 16.06 120.79.79 10.07 1.57 20.13 2.15 30.2l.45 7.55.11 1.89v2.89a44.08 44.08 0 0 1-.49 6.16 49.47 49.47 0 0 1-9.73 22.71 49.85 49.85 0 0 1-32.07 18.71l-3.16.38-2.11.2-3.76.33c-10 .89-20.06 1.81-30.11 2.47-40.15 3.16-80.37 5-120.61 6.44s-80.49 3-120.69 5.18l19.09-20.16v156l-20.21-20.17h414a20.17 20.17 0 1 1 0 40.33h-414a20.17 20.17 0 0 1-20.16-20.17v-156a20.26 20.26 0 0 1 19.09-20.17c40.2-2.24 80.36-5.16 120.53-8s80.34-5.54 120.6-6.79c10-.44 20.12-.62 30.19-.83l6-.13a8.18 8.18 0 0 0 2.31-.35 10.52 10.52 0 0 0 4.26-2.42 10.24 10.24 0 0 0 2.8-4.38 11.11 11.11 0 0 0 .36-1.35 4.88 4.88 0 0 0 .16-.87l.12-1.89.46-7.55c.58-10.06 1.38-20.13 2.17-30.19 3.65-40.3 7.88-80.55 16.19-120.81ZM2026.59 2632.64l-19.75 197.27a20.27 20.27 0 0 1-40.34-4 21.44 21.44 0 0 1 .83-4Z"/><path fill="#1e276a" d="M2776.21 2875.17c3.85 81.17-60.94 149-142.2 149v129.84l-304.39 14.21-165.94 7.78 10.53-11.71 24.24-26.91-24.32-106.6 54.92-10 2.09-70.14 353.08-24.76a72.3 72.3 0 0 0 67.12-76.33l-13-223.2a138.48 138.48 0 0 0-68.48-111.56l-238.3-139c3.51-.25 7-.59 10.45-1.17a110.9 110.9 0 0 0 15-3.51 93.44 93.44 0 0 0 9.53-3.52 106.88 106.88 0 0 0 60.95-66.79l239.09 136.43a191 191 0 0 1 96.17 156.77Z" opacity=".3"/><path fill="#d0d0d0" d="M2198.25 3088.24a68.54 68.54 0 0 1-68.56 68.56h-444.47a68.59 68.59 0 0 1 0-137.17h444.47a68.58 68.58 0 0 1 68.56 68.61Z"/><path fill="#1e276a" d="M2129.69 3177h-444.47a88.76 88.76 0 0 1 0-177.51h444.47a88.76 88.76 0 0 1 0 177.51Zm-444.47-137.2a48.42 48.42 0 0 0 0 96.83h444.47a48.42 48.42 0 0 0 0-96.83Z"/><path fill="#d0d0d0" d="M1685.22 3156.8H717.9a68.59 68.59 0 1 1 0-137.17h967.32a68.59 68.59 0 0 0 0 137.17Z"/><path fill="#fff" d="M763.11 3156.8h-39.45a68.59 68.59 0 1 1 0-137.17h39.45a68.59 68.59 0 1 0 0 137.17Z" opacity=".55"/><path fill="#1e276a" d="M2129.69 3177h-444.47a88.76 88.76 0 0 1 0-177.51h444.47a88.76 88.76 0 0 1 0 177.51Zm-444.47-137.2a48.42 48.42 0 0 0 0 96.83h444.47a48.42 48.42 0 0 0 0-96.83Z"/><path fill="#1e276a" d="M1685.22 3177H717.9a88.76 88.76 0 0 1 0-177.51h967.32a20.17 20.17 0 1 1 0 40.34 48.42 48.42 0 0 0 0 96.83 20.17 20.17 0 1 1 0 40.34ZM717.9 3039.8a48.42 48.42 0 1 0 0 96.83h893a88.77 88.77 0 0 1-.05-96.83Z"/><path fill="#b8c5d3" d="M1589.15 3076.61a63.22 63.22 0 0 1-15.78 2.19H648.48c-1.84.09-3.68 0-5.48 0a64.38 64.38 0 0 1-58.92-47.47l-214.54-790.48a64.5 64.5 0 0 1 62.16-81.28 17.82 17.82 0 0 1 2.63.13l921.25-.08h2.1a64.45 64.45 0 0 1 62.17 47.57l214.54 790.43a64.38 64.38 0 0 1-45.24 78.99Z"/><g opacity=".55"><path fill="#fff" d="M462.74 2159.7h-6.58c1.36-.08 2.72-.13 4-.13a16.7 16.7 0 0 1 2.58.13Z"/><path fill="#1e276a" d="M462.74 2179.87h-6.58l-1.29-40.29c1.8-.11 3.59-.17 5.33-.17a36 36 0 0 1 5.54.35Z"/></g><path fill="#fff" d="m1328.67 2159.63-19 35h-3.49l-12.88 33.6H415.93a10.06 10.06 0 0 0-9.86 12.44v.13l214.55 790.5a64.42 64.42 0 0 0 59.47 47.51h-23.56a64.43 64.43 0 0 1-64.42-47.51l-214.29-789.65-.22-.8a64.46 64.46 0 0 1 45.25-79 65.44 65.44 0 0 1 16.91-2.26 21.44 21.44 0 0 1 2.63.11h28.4Z" opacity=".6"/><path fill="#1e276a" d="M1572.13 3099a84.06 84.06 0 0 1-81.46-62.47l-214.55-790.42a84.73 84.73 0 0 1 59.46-103.75c8.71-2.36 17.57-3.63 26.3-2.83a84.1 84.1 0 0 1 77.42 62.3l214.55 790.45a84.52 84.52 0 0 1-59.42 103.75h-.11a86.7 86.7 0 0 1-19.07 2.89c-1.04.08-2.09.08-3.12.08Zm17-22.43Zm-231.41-896.87a44.36 44.36 0 0 0-42.69 55.85L1529.6 3026a43.93 43.93 0 0 0 44.19 32.65 46.56 46.56 0 0 0 10.14-1.55 44.2 44.2 0 0 0 31-54.22l-214.56-790.47a43.9 43.9 0 0 0-40.78-32.59c-.46 0-.92-.06-1.37-.1Zm-.06-.06Z"/><path fill="#1e276a" d="M1589.15 3084.69a66.21 66.21 0 0 1-14.63 2.22 64.33 64.33 0 0 1-64.38-47.52L1295.58 2249a64.55 64.55 0 0 1 62.16-81.3 19.3 19.3 0 0 1 2.63.12 64.34 64.34 0 0 1 59.46 47.47l214.56 790.44a64.37 64.37 0 0 1-45.24 78.96Z" opacity=".3"/><path fill="#1e276a" d="M646.05 3099a84.09 84.09 0 0 1-81.46-62.46l-214.54-790.41a84.66 84.66 0 0 1 81.63-106.72c.93 0 2.21 0 3.73.13l919.66-.09h2.61a84.71 84.71 0 0 1 81.63 62.46l214.54 790.42a84.65 84.65 0 0 1-59.41 103.78h-.13a84.46 84.46 0 0 1-20.78 2.86H648.8c-.92.03-1.8.03-2.75.03Zm943.1-22.4ZM432 2179.74a44.35 44.35 0 0 0-43 55.83L603.52 3026a43.93 43.93 0 0 0 44.21 32.65h925.63a43.72 43.72 0 0 0 10.57-1.51 44.29 44.29 0 0 0 31-54.27l-214.55-790.44a44.3 44.3 0 0 0-42.7-32.68h-2.1l-921.27.09a19.36 19.36 0 0 1-2.31-.1Zm-.73-.1h.09Z"/><ellipse cx="914.39" cy="2662.75" fill="#1e276a" rx="51.38" ry="90.28" transform="rotate(-20.5 914.166 2662.372)"/><path fill="#1e276a" d="M1350.22 2442.13c61 452-187.62 627.6-622.75 636.67h801.14l-14.25-27Z" opacity=".3"/><path fill="#1e276a" d="M2027.41 3070.43h58.9a4.61 4.61 0 0 1 4.61 4.61v18.29a4.62 4.62 0 0 1-4.62 4.62h-58.9a4.61 4.61 0 0 1-4.61-4.61V3075a4.61 4.61 0 0 1 4.62-4.57Z" transform="rotate(180 2056.855 3084.185)"/><path fill="#1e276a" d="M1932 3070.43h58.9a4.61 4.61 0 0 1 4.61 4.61v18.29a4.62 4.62 0 0 1-4.62 4.62H1932a4.62 4.62 0 0 1-4.62-4.62V3075a4.61 4.61 0 0 1 4.62-4.57Z" transform="rotate(180 1961.485 3084.185)"/><path fill="#1e276a" d="M2198.25 3080.18a68.54 68.54 0 0 1-68.56 68.57h-444.47a68.59 68.59 0 0 1 0-137.17h444.47a68.58 68.58 0 0 1 68.56 68.6Z" opacity=".3"/><path fill="#fff" d="M550.68 2527.7c-17.25-68-26.74-124.23 12.11-134.08s84.32 37.26 101.57 105.24-.26 131.08-39.11 140.93-57.32-44.11-74.57-112.09Z" opacity=".32"/><path fill="#fff" d="M615.59 2767.31c-7.05-27.77-9.79-51 15.91-57.55s52.23 10.71 59.28 38.47-8.08 55.56-33.77 62.08-34.38-15.23-41.42-43Z" opacity=".32"/><rect width="3366.23" height="121.37" x="318.75" y="3157.28" fill="#e87552" rx="52.66"/><path fill="#fff" d="M3685 3217.93a60.1 60.1 0 0 1-4 21.71 60.76 60.76 0 0 0-56.71-38.94H379.44a60.73 60.73 0 0 0-56.7 38.94 59.89 59.89 0 0 1-4-21.71 60.67 60.67 0 0 1 60.71-60.65h3244.83a60.7 60.7 0 0 1 60.72 60.65Z" opacity=".55"/><path fill="#1e276a" d="M3624.3 3298.81H379.43a80.85 80.85 0 1 1 0-161.7H3624.3a80.85 80.85 0 1 1 0 161.7ZM379.43 3177.45a40.52 40.52 0 0 0 0 81H3624.3a40.52 40.52 0 0 0 0-81Z"/><path fill="#ff5722" d="M2876.93 3037.13a64.75 64.75 0 0 1 64.75-64.75h546.9a28.12 28.12 0 0 0 28.12-28.12 28.12 28.12 0 0 0-28.12-28.13h-552.06a121 121 0 0 0-121 121 121 121 0 0 0 121 121h552.06a28.12 28.12 0 0 0 28.12-28.13 28.12 28.12 0 0 0-28.12-28.12h-546.9a64.75 64.75 0 0 1-64.75-64.75Z"/><path fill="#1e276a" d="M3488.58 3172.53h-552.06c-74.67 0-135.41-60.74-135.41-135.4s60.74-135.4 135.41-135.4h552.06a42.53 42.53 0 1 1 0 85.06h-546.9a50.34 50.34 0 0 0 0 100.68h546.9a42.53 42.53 0 0 1 0 85.06Zm-552.06-242a106.59 106.59 0 1 0 0 213.18h552.06a13.72 13.72 0 1 0 0-27.44h-546.9a79.15 79.15 0 1 1 0-158.3h546.9a13.72 13.72 0 1 0 0-27.44Z"/><path fill="#fff" d="M3488.58 3115.37h-546.9a77.86 77.86 0 0 1-50.59-18.66 78.08 78.08 0 0 0 59.59 27.66h546.9a14.49 14.49 0 0 1 4.76.86 14.59 14.59 0 0 0-13.76-9.86Z" opacity=".5"/><path fill="#fff" d="M2838 3046.13a107.63 107.63 0 0 1 107.51-107.51h552.06a14.45 14.45 0 0 1 4.76.87 14.59 14.59 0 0 0-13.76-9.86h-552.05a107.43 107.43 0 0 0-71.34 187.83 107.06 107.06 0 0 1-27.18-71.33Z" opacity=".5"/><path fill="#fff" d="M2937.62 2972.38c-33.52 0-60.69 29-60.69 64.75 0 35.76 27.17 64.75 60.69 64.75h541.91v-129.5Z"/><path fill="#1e276a" d="M3479.53 3115.37h-541.91c-40.9 0-74.18-35.1-74.18-78.24s33.28-78.24 74.18-78.24h541.91a13.49 13.49 0 0 1 13.5 13.49v129.5a13.49 13.49 0 0 1-13.5 13.49Zm-541.91-129.49c-26 0-47.19 23-47.19 51.25s21.17 51.25 47.19 51.25H3466v-102.5Z"/><path fill="#ffeb3b" d="m3051.56 3128.85-20.45-16.36a11.49 11.49 0 0 0-14.36 0l-20.45 16.36a7 7 0 0 1-11.33-5.44v-83.14a7.55 7.55 0 0 1 7.54-7.54h62.83a7.55 7.55 0 0 1 7.54 7.54v83.14a7 7 0 0 1-11.32 5.44Z"/><path fill="#1e276a" d="M2992 3141.92a18.69 18.69 0 0 1-8-1.84 18.37 18.37 0 0 1-10.48-16.67v-83.14a19.08 19.08 0 0 1 19.06-19.06h62.83a19.09 19.09 0 0 1 19.07 19.06v83.14a18.5 18.5 0 0 1-30 14.44l-20.44-16.36-20.42 16.36a18.38 18.38 0 0 1-11.62 4.07Zm66.79-22.07Zm-34.83-21.44a23 23 0 0 1 14.38 5.08l13.05 10.44v-69.67h-54.89v69.67l13.05-10.44a22.93 22.93 0 0 1 14.38-5.08Z"/><path fill="#fff" d="M3005.22 3043.98h-9v70.53l9-7.2v-63.33z" opacity=".5"/><path fill="#fff" d="M3047.13 3103.71a22.11 22.11 0 0 0-18.71-4.52 22.79 22.79 0 0 1 9.71 4.52l13.51 10.8v-7.19Z" opacity=".5"/><path fill="#1e276a" d="m3066.79 3022.34 229.42 9-229.42 9a9 9 0 0 1-.71-18Z"/><path fill="#1e276a" d="m3482.89 3007.25-604.56 55.53 16.01-66.93 26.25-24.59H3482.89v35.99z" opacity=".3"/><path fill="#fff" d="M3069.85 866.23h613.84a83.67 83.67 0 0 1 83.67 83.66V1401a83.67 83.67 0 0 1-83.67 83.67h-372.42l-132.84 143.92c-32.28 35-90.69 12.13-90.69-35.46v-108.89a110.49 110.49 0 0 1-101.55-110.09V949.89a83.66 83.66 0 0 1 83.66-83.66Z"/><path fill="#1e276a" d="M3140.19 1662.78a70 70 0 0 1-25.51-4.84 69.16 69.16 0 0 1-44.23-64.79v-94c-58.07-12.25-101.55-64.35-101.55-125V949.89a101.07 101.07 0 0 1 100.95-100.95h613.84a101.07 101.07 0 0 1 101 100.95V1401a101.07 101.07 0 0 1-101 101h-364.85l-127.71 138.35a69.18 69.18 0 0 1-50.94 22.43Zm-70.34-779.27a66.46 66.46 0 0 0-66.38 66.38v424.26c0 48.2 37.63 89 85.66 92.86a17.28 17.28 0 0 1 15.89 17.23v108.91c0 17.61 11.5 28.38 22.25 32.59s26.51 4.1 38.46-8.86L3298.57 1473a17.28 17.28 0 0 1 12.7-5.57h372.42a66.46 66.46 0 0 0 66.39-66.37V949.89a66.47 66.47 0 0 0-66.39-66.38Z"/><path fill="#1e276a" d="M3721.07 882.69c-13.14 166.46-316.56 441.34-438.39 545.43a427.54 427.54 0 0 0-86.68 101.56l-71.11 115.9 42.86-11.18 133.78-149.5 409.22-7.5 65.2-57V932.07Z" opacity=".2"/><path fill="#3c4a59" d="M3100 949.94h550.22a23.93 23.93 0 0 1 23.93 23.93v388.26a31.48 31.48 0 0 1-31.48 31.48h-535.12a31.48 31.48 0 0 1-31.48-31.48V973.86a23.93 23.93 0 0 1 23.93-23.92Z"/><path fill="#1e276a" d="M3637.87 1404.58h-525.53a47.3 47.3 0 0 1-47.24-47.25V977.51a38.59 38.59 0 0 1 38.54-38.51h542.93a38.59 38.59 0 0 1 38.54 38.55v379.82a47.3 47.3 0 0 1-47.24 47.21Zm-534.23-443.67a16.62 16.62 0 0 0-16.6 16.6v379.82a25.33 25.33 0 0 0 25.3 25.3h525.53a25.33 25.33 0 0 0 25.3-25.3V977.51a16.62 16.62 0 0 0-16.6-16.6Z"/><path fill="#fff" d="M3098 1357.33V977.51a16.62 16.62 0 0 1 16.6-16.6h-11a16.62 16.62 0 0 0-16.6 16.6v379.82a25.33 25.33 0 0 0 25.31 25.3h11a25.33 25.33 0 0 1-25.31-25.3Z" opacity=".4"/><path fill="#e0e0e0" d="M3674.14 976.19c0-14.5-12.44-26.25-27.78-26.25h-542.5c-15.35 0-27.79 11.75-27.79 26.25v43.52h598.07Z"/><path fill="#1e276a" d="M3674.14 1030.68h-598.07a11 11 0 0 1-11-11v-43.49c0-20.53 17.39-37.23 38.76-37.23h542.5c21.37 0 38.75 16.7 38.75 37.23v43.52a11 11 0 0 1-10.94 10.97Zm-587.1-22h576.13v-32.49c0-8.42-7.55-15.28-16.81-15.28h-542.5c-9.27 0-16.82 6.86-16.82 15.28Z"/><path fill="#ffeb3b" d="M3354.29 1080.85h-215.76a8.65 8.65 0 0 1 0-17.29h215.76a8.65 8.65 0 0 1 0 17.29Z"/><path fill="#f75c4c" d="M3269.12 1135h-130.59a8.65 8.65 0 0 1 0-17.29h130.59a8.65 8.65 0 0 1 0 17.29Z"/><path fill="#ba68c8" d="M3581.4 1135h-265a8.65 8.65 0 1 1 0-17.29h265a8.65 8.65 0 0 1 0 17.29Z"/><path fill="#2ecc71" d="M3399.71 1186.34h-261.18a8.65 8.65 0 0 1 0-17.29h261.18a8.65 8.65 0 1 1 0 17.29Z"/><path fill="#ffeb3b" d="M3528.41 1186.34h-83.28a8.65 8.65 0 0 1 0-17.29h83.28a8.65 8.65 0 0 1 0 17.29Z"/><path fill="#f75c4c" d="M3490.56 1235.7h-352a8.64 8.64 0 0 1 0-17.28h352a8.64 8.64 0 0 1 0 17.28Z"/><path fill="#ba68c8" d="M3263.44 1286.33h-124.91a8.64 8.64 0 0 1 0-17.28h124.91a8.64 8.64 0 1 1 0 17.28Z"/><path fill="#2ecc71" d="M3551.12 1286.33h-238.47a8.64 8.64 0 1 1 0-17.28h238.47a8.64 8.64 0 1 1 0 17.28Z"/><path fill="#f75c4c" d="M3430 1342.45h-291.47a8.64 8.64 0 0 1 0-17.28H3430a8.64 8.64 0 1 1 0 17.28Z"/><circle cx="3139.41" cy="983.72" r="9.26" fill="#1e276a"/><circle cx="3172.35" cy="983.72" r="9.26" fill="#1e276a"/><circle cx="3205.29" cy="983.72" r="9.26" fill="#1e276a"/><g clip-path="url(#a)"><path fill="#fff" d="M3322.18 826.81h90.72v263.38h-90.72z" opacity=".5" transform="rotate(38.59 3367.837 958.717)"/><path fill="#fff" d="M3491.57 818.65h46.97v263.38h-46.97z" opacity=".5" transform="rotate(38.59 3515.38 950.558)"/></g><path fill="#1e276a" d="M3660.44 952.65s-212.65 427.94-580.82 412.19l18.74 30.45h548l28.1-25.77-.06-390.81Z" opacity=".2"/><path fill="#fef5e7" d="M3338.05 2910.37H3042l-46.29-508.21h388.63l-46.29 508.21z"/><path fill="#1e276a" d="M3338 2926h-296a15.62 15.62 0 0 1-15.56-14.21l-46.29-508.21a15.62 15.62 0 0 1 15.56-17h388.63a15.62 15.62 0 0 1 15.56 17l-46.29 508.21A15.62 15.62 0 0 1 3338 2926Zm-281.77-31.26h267.5l43.45-476.95h-354.35Z"/><path fill="#fff" d="m3012.83 2417.79 43.45 476.95h31.26l-43.45-476.95h-31.26z" opacity=".4"/><g clip-path="url(#b)"><path fill="#be8c6b" d="M2978.23 2513.97h448.08v258.29h-448.08z"/><path fill="#1e276a" d="M3426.31 2783.78h-448.08a11.53 11.53 0 0 1-11.53-11.52V2514a11.53 11.53 0 0 1 11.53-11.53h448.08a11.53 11.53 0 0 1 11.52 11.53v258.29a11.52 11.52 0 0 1-11.52 11.49Zm-436.56-23.05h425v-235.24h-425Z"/><path fill="#fff" d="M3043.93 2759.23h31.26l-21.15-232.24h-31.26l21.15 232.24z" opacity=".5"/><path fill="#1e276a" d="M3137.85 2680.63a1.85 1.85 0 0 1 .42-.17c1.2-.14 7.2-3.3 13.15-7.81a124 124 0 0 0 18-16.2 63.28 63.28 0 0 0 5-6.31c4.75-7 6.56-14.68 8.91-23.6s5.31-18.89 13.38-28.81l1.17-1.42c6.55-7.29 14.12-10.29 20.73-13.28 2.85-1.3 5.6-2.6 8.3-4.14a41.07 41.07 0 0 0-20.53-3.8c-17.46 1-37.34 11-53 28.6-22.74 25.53-28.78 58-15.54 76.94ZM3248.93 2645.77a77 77 0 0 0 2.65-9.93 59.48 59.48 0 0 0 1.1-12.59c-.24-10.55-3.56-20-10.12-26.86a84.68 84.68 0 0 1-14.27 7.77c-7 3.07-12.11 5.36-16.1 9.87-.2.22-.43.52-.73.9-6.17 7.59-8.53 15.15-10.82 23.74s-4.3 18-10.78 27.66a75.71 75.71 0 0 1-6.16 7.81 134.19 134.19 0 0 1-20.17 18.1 101.53 101.53 0 0 1-11.19 7.23c6.95 4.85 15.56 6.9 24.88 6.37 17.33-1 37-10.88 52.61-28.19a3.17 3.17 0 0 1 .41-.41 93 93 0 0 0 18.69-31.47Zm0 0"/></g><path fill="#707070" d="M3009 2363.9h362a45.6 45.6 0 0 1 45.6 45.6v14.19h-453.2v-14.19a45.6 45.6 0 0 1 45.6-45.6Z"/><path fill="#1e276a" d="M3416.63 2439.32h-453.21a15.63 15.63 0 0 1-15.63-15.63v-7.25a68.25 68.25 0 0 1 68.18-68.17h348.11a68.25 68.25 0 0 1 68.18 68.17v7.25a15.63 15.63 0 0 1-15.63 15.63ZM2980 2408.05h420a37 37 0 0 0-36-28.52h-348a37 37 0 0 0-36 28.52Z"/><path fill="#fff" d="M3026.39 2390h348.11a36.54 36.54 0 0 1 20.46 6.35 36.88 36.88 0 0 0-30.88-16.77H3016a37 37 0 0 0-36 28.53h14.71a36.83 36.83 0 0 1 31.68-18.11Z" opacity=".5"/><path fill="#707070" d="M3018.43 2363.9h343.19v-20.57a31.51 31.51 0 0 0-30.14-31.48l-280.17-12.2a31.5 31.5 0 0 0-32.88 31.47Z"/><path fill="#1e276a" d="M3361.62 2379.53h-343.19a15.63 15.63 0 0 1-15.63-15.63v-32.78A47.15 47.15 0 0 1 3052 2284l280.17 12.2a47.05 47.05 0 0 1 45.09 47.1v20.57a15.63 15.63 0 0 1-15.64 15.66Zm-327.56-31.26H3346v-4.94a15.85 15.85 0 0 0-15.19-15.87l-280.17-12.2a15.89 15.89 0 0 0-16.57 15.86Z"/><path fill="#fff" d="M3044.48 2336.33a15.89 15.89 0 0 1 16.57-15.86l280.17 12.21c.25 0 .47.08.72.1a15.78 15.78 0 0 0-11.14-5.31l-280.17-12.21a15.89 15.89 0 0 0-16.57 15.86v17.15h10.42Z" opacity=".5"/><path fill="#1e276a" d="m3014 2430.44 1.44 15.84 226.09 7.8a63.94 63.94 0 0 1 60.86 74.55c-20.08 119.18-80 345.54-246.67 359.79l.58 6.32h257.07l42.3-464.3Z" opacity=".3"/><rect width="3653" height="213.19" x="173.5" y="3284.89" fill="#1e276a" opacity=".3" rx="92.5"/><path fill="#ba68c8" d="M1103.83 2019.49A52.4 52.4 0 0 1 1058 1993l-42.27-73.21H907.89c-43.35-.26-78.53-32.75-78.53-72.43v-195.63c0-39.94 35.41-72.44 78.94-72.44h391.09c43.53 0 79 32.5 79 72.44v195.62c0 40-35.42 72.45-79 72.45h-107.45l-42.27 73.2a52.41 52.41 0 0 1-45.84 26.49Z"/><path fill="#1e276a" d="M1299.37 1597.58c33.49 0 60.65 24.25 60.65 54.15v195.62c0 29.91-27.16 54.15-60.65 54.15h-118l-11.3 19.58-36.25 62.79a34.65 34.65 0 0 1-60 0l-36.25-62.79-11.3-19.58H907.88c-33.31-.19-60.25-24.34-60.25-54.13v-195.64c0-29.9 27.16-54.15 60.65-54.15h391.09m0-36.59H908.28c-53.62 0-97.24 40.71-97.24 90.74v195.62c0 49.71 43.34 90.41 96.62 90.73h97.48l.75 1.29 36.24 62.78a71.24 71.24 0 0 0 123.39 0l36.25-62.79.74-1.27h96.86c53.62 0 97.24-40.71 97.24-90.75v-195.61c0-50-43.62-90.74-97.24-90.74Z"/><path fill="#fff" d="M1045 1815.08a11.46 11.46 0 0 1-8-3.26l-59.29-57.71a11.51 11.51 0 0 1 0-16.51l55.46-54a11.52 11.52 0 1 1 16.07 16.51l-47 45.73 50.8 49.44a11.52 11.52 0 0 1-8 19.78ZM1162.66 1815.08a11.52 11.52 0 0 1-8-19.78l50.8-49.44-47-45.73a11.52 11.52 0 0 1 16.07-16.51l55.46 54a11.51 11.51 0 0 1 0 16.51l-59.28 57.71a11.48 11.48 0 0 1-8.05 3.24ZM1081.84 1846.11a11.18 11.18 0 0 1-2.95-.39 11.53 11.53 0 0 1-8.2-14.08l45.9-173.73a11.52 11.52 0 1 1 22.28 5.88L1093 1837.53a11.54 11.54 0 0 1-11.16 8.58Z"/><path fill="snow" d="M3189.36 2205.84a8.64 8.64 0 0 1-8.64-8.64v-12a20.13 20.13 0 0 0-20.11-20.11h-104.32a40.58 40.58 0 0 1 0-81.16h242.19a18.1 18.1 0 0 0 0-36.2H3097.1a8.64 8.64 0 1 1 0-17.28h201.38a35.38 35.38 0 1 1 0 70.76h-242.19a23.3 23.3 0 0 0 0 46.59h104.32a37.44 37.44 0 0 1 37.39 37.4v12a8.64 8.64 0 0 1-8.64 8.64ZM3054.65 2047.68h-30.42a8.64 8.64 0 1 1 0-17.28h30.42a8.64 8.64 0 0 1 0 17.28ZM3112.44 1992.94H2969a8.65 8.65 0 1 1 0-17.29h143.43a8.65 8.65 0 0 1 0 17.29Z" opacity=".6"/><path fill="#1e276a" d="M1299.37 1597.58H1259c33.49 0 60.64 24.25 60.64 54.15v68.61c-16.82 135.66-115.57 150.66-159.71 172.45a70.84 70.84 0 0 0-30 28l-.15.26-36.25 62.79a34.5 34.5 0 0 1-9.84 10.87c15.79 11.31 39.44 7.71 50.17-10.87l33.6-58.2 149.79-15 8.87-14.78c20.08-8.83 33.93-27.23 33.93-48.56v-195.57c-.05-29.9-27.19-54.15-60.68-54.15Z" opacity=".2"/></svg>